<?xml version="1.0" encoding="iso-8859-1"?>
<!-- Generator: Adobe Illustrator 19.0.1, SVG Export Plug-In . SVG Version: 6.00 Build 0)  -->
<svg version="1.1" xmlns="http://www.w3.org/2000/svg" xmlns:xlink="http://www.w3.org/1999/xlink" x="0px" y="0px"
	 viewBox="0 0 128 128" style="enable-background:new 0 0 128 128;" xml:space="preserve">
<g id="_x32_">
	<g id="icon_3_">
		<path style="fill:#161616;" d="M90.437,61.761c-6.805,0-12.299,5.495-12.299,12.299S83.632,86.36,90.437,86.36
			c6.785,0,12.299-5.495,12.299-12.299S97.222,61.761,90.437,61.761z M37.563,61.761c-6.785,0-12.299,5.495-12.299,12.299
			S30.778,86.36,37.563,86.36c6.805,0,12.3-5.495,12.3-12.299S44.368,61.761,37.563,61.761z M37.563,61.761
			c-6.785,0-12.299,5.495-12.299,12.299S30.778,86.36,37.563,86.36c6.805,0,12.3-5.495,12.3-12.299S44.368,61.761,37.563,61.761z
			 M90.437,61.761c-6.805,0-12.299,5.495-12.299,12.299S83.632,86.36,90.437,86.36c6.785,0,12.299-5.495,12.299-12.299
			S97.222,61.761,90.437,61.761z M90.437,61.761c-6.805,0-12.299,5.495-12.299,12.299S83.632,86.36,90.437,86.36
			c6.785,0,12.299-5.495,12.299-12.299S97.222,61.761,90.437,61.761z M37.563,61.761c-6.785,0-12.299,5.495-12.299,12.299
			S30.778,86.36,37.563,86.36c6.805,0,12.3-5.495,12.3-12.299S44.368,61.761,37.563,61.761z M37.563,61.761
			c-6.785,0-12.299,5.495-12.299,12.299S30.778,86.36,37.563,86.36c6.805,0,12.3-5.495,12.3-12.299S44.368,61.761,37.563,61.761z
			 M90.437,61.761c-6.805,0-12.299,5.495-12.299,12.299S83.632,86.36,90.437,86.36c6.785,0,12.299-5.495,12.299-12.299
			S97.222,61.761,90.437,61.761z M90.437,61.761c-6.805,0-12.299,5.495-12.299,12.299S83.632,86.36,90.437,86.36
			c6.785,0,12.299-5.495,12.299-12.299S97.222,61.761,90.437,61.761z M37.563,61.761c-6.785,0-12.299,5.495-12.299,12.299
			S30.778,86.36,37.563,86.36c6.805,0,12.3-5.495,12.3-12.299S44.368,61.761,37.563,61.761z M92.373,48.699H35.627
			c-12.671,0-22.995,10.305-22.995,22.995v5.319c0,12.612,3.657,20.981,10.872,24.931c13.414,7.313,34.493-4.009,40.477-7.548
			c4.595,2.777,18.068,10.266,30.172,10.246c3.618,0,7.118-0.665,10.227-2.327c7.274-3.93,10.989-12.456,10.989-25.303v-5.319
			C115.368,59.004,105.044,48.699,92.373,48.699z M109.502,77.013c0,10.52-2.659,17.305-7.919,20.141
			c-10.266,5.534-29.448-4.36-35.979-8.643l-1.584-1.056l-1.603,1.036c-6.551,4.204-25.811,13.903-36.097,8.291
			c-5.182-2.816-7.822-9.484-7.822-19.769v-5.319c0-9.444,7.685-17.129,17.129-17.129h56.746c9.445,0,17.129,7.685,17.129,17.129
			V77.013z M90.437,61.761c-6.805,0-12.299,5.495-12.299,12.299S83.632,86.36,90.437,86.36c6.785,0,12.299-5.495,12.299-12.299
			S97.222,61.761,90.437,61.761z M37.563,61.761c-6.785,0-12.299,5.495-12.299,12.299S30.778,86.36,37.563,86.36
			c6.805,0,12.3-5.495,12.3-12.299S44.368,61.761,37.563,61.761z M37.563,61.761c-6.785,0-12.299,5.495-12.299,12.299
			S30.778,86.36,37.563,86.36c6.805,0,12.3-5.495,12.3-12.299S44.368,61.761,37.563,61.761z M90.437,61.761
			c-6.805,0-12.299,5.495-12.299,12.299S83.632,86.36,90.437,86.36c6.785,0,12.299-5.495,12.299-12.299S97.222,61.761,90.437,61.761
			z M90.437,61.761c-6.805,0-12.299,5.495-12.299,12.299S83.632,86.36,90.437,86.36c6.785,0,12.299-5.495,12.299-12.299
			S97.222,61.761,90.437,61.761z M37.563,61.761c-6.785,0-12.299,5.495-12.299,12.299S30.778,86.36,37.563,86.36
			c6.805,0,12.3-5.495,12.3-12.299S44.368,61.761,37.563,61.761z M37.563,61.761c-6.785,0-12.299,5.495-12.299,12.299
			S30.778,86.36,37.563,86.36c6.805,0,12.3-5.495,12.3-12.299S44.368,61.761,37.563,61.761z M90.437,61.761
			c-6.805,0-12.299,5.495-12.299,12.299S83.632,86.36,90.437,86.36c6.785,0,12.299-5.495,12.299-12.299S97.222,61.761,90.437,61.761
			z M90.437,61.761c-6.805,0-12.299,5.495-12.299,12.299S83.632,86.36,90.437,86.36c6.785,0,12.299-5.495,12.299-12.299
			S97.222,61.761,90.437,61.761z M37.563,61.761c-6.785,0-12.299,5.495-12.299,12.299S30.778,86.36,37.563,86.36
			c6.805,0,12.3-5.495,12.3-12.299S44.368,61.761,37.563,61.761z M37.563,61.761c-6.785,0-12.299,5.495-12.299,12.299
			S30.778,86.36,37.563,86.36c6.805,0,12.3-5.495,12.3-12.299S44.368,61.761,37.563,61.761z M90.437,61.761
			c-6.805,0-12.299,5.495-12.299,12.299S83.632,86.36,90.437,86.36c6.785,0,12.299-5.495,12.299-12.299S97.222,61.761,90.437,61.761
			z M90.437,61.761c-6.805,0-12.299,5.495-12.299,12.299S83.632,86.36,90.437,86.36c6.785,0,12.299-5.495,12.299-12.299
			S97.222,61.761,90.437,61.761z M37.563,61.761c-6.785,0-12.299,5.495-12.299,12.299S30.778,86.36,37.563,86.36
			c6.805,0,12.3-5.495,12.3-12.299S44.368,61.761,37.563,61.761z M37.563,61.761c-6.785,0-12.299,5.495-12.299,12.299
			S30.778,86.36,37.563,86.36c6.805,0,12.3-5.495,12.3-12.299S44.368,61.761,37.563,61.761z M90.437,61.761
			c-6.805,0-12.299,5.495-12.299,12.299S83.632,86.36,90.437,86.36c6.785,0,12.299-5.495,12.299-12.299S97.222,61.761,90.437,61.761
			z M90.437,61.761c-6.805,0-12.299,5.495-12.299,12.299S83.632,86.36,90.437,86.36c6.785,0,12.299-5.495,12.299-12.299
			S97.222,61.761,90.437,61.761z M37.563,61.761c-6.785,0-12.299,5.495-12.299,12.299S30.778,86.36,37.563,86.36
			c6.805,0,12.3-5.495,12.3-12.299S44.368,61.761,37.563,61.761z M92.373,48.699H35.627c-12.671,0-22.995,10.305-22.995,22.995
			v5.319c0,12.612,3.657,20.981,10.872,24.931c13.414,7.313,34.493-4.009,40.477-7.548c4.595,2.777,18.068,10.266,30.172,10.246
			c3.618,0,7.118-0.665,10.227-2.327c7.274-3.93,10.989-12.456,10.989-25.303v-5.319C115.368,59.004,105.044,48.699,92.373,48.699z
			 M109.502,77.013c0,10.52-2.659,17.305-7.919,20.141c-10.266,5.534-29.448-4.36-35.979-8.643l-1.584-1.056l-1.603,1.036
			c-6.551,4.204-25.811,13.903-36.097,8.291c-5.182-2.816-7.822-9.484-7.822-19.769v-5.319c0-9.444,7.685-17.129,17.129-17.129
			h56.746c9.445,0,17.129,7.685,17.129,17.129V77.013z M90.437,61.761c-6.805,0-12.299,5.495-12.299,12.299
			S83.632,86.36,90.437,86.36c6.785,0,12.299-5.495,12.299-12.299S97.222,61.761,90.437,61.761z M37.563,61.761
			c-6.785,0-12.299,5.495-12.299,12.299S30.778,86.36,37.563,86.36c6.805,0,12.3-5.495,12.3-12.299S44.368,61.761,37.563,61.761z
			 M37.563,61.761c-6.785,0-12.299,5.495-12.299,12.299S30.778,86.36,37.563,86.36c6.805,0,12.3-5.495,12.3-12.299
			S44.368,61.761,37.563,61.761z M90.437,61.761c-6.805,0-12.299,5.495-12.299,12.299S83.632,86.36,90.437,86.36
			c6.785,0,12.299-5.495,12.299-12.299S97.222,61.761,90.437,61.761z M90.437,61.761c-6.805,0-12.299,5.495-12.299,12.299
			S83.632,86.36,90.437,86.36c6.785,0,12.299-5.495,12.299-12.299S97.222,61.761,90.437,61.761z M37.563,61.761
			c-6.785,0-12.299,5.495-12.299,12.299S30.778,86.36,37.563,86.36c6.805,0,12.3-5.495,12.3-12.299S44.368,61.761,37.563,61.761z
			 M37.563,61.761c-6.785,0-12.299,5.495-12.299,12.299S30.778,86.36,37.563,86.36c6.805,0,12.3-5.495,12.3-12.299
			S44.368,61.761,37.563,61.761z M90.437,61.761c-6.805,0-12.299,5.495-12.299,12.299S83.632,86.36,90.437,86.36
			c6.785,0,12.299-5.495,12.299-12.299S97.222,61.761,90.437,61.761z M90.437,61.761c-6.805,0-12.299,5.495-12.299,12.299
			S83.632,86.36,90.437,86.36c6.785,0,12.299-5.495,12.299-12.299S97.222,61.761,90.437,61.761z M37.563,61.761
			c-6.785,0-12.299,5.495-12.299,12.299S30.778,86.36,37.563,86.36c6.805,0,12.3-5.495,12.3-12.299S44.368,61.761,37.563,61.761z
			 M92.373,48.699H35.627c-12.671,0-22.995,10.305-22.995,22.995v5.319c0,12.612,3.657,20.981,10.872,24.931
			c13.414,7.313,34.493-4.009,40.477-7.548c4.595,2.777,18.068,10.266,30.172,10.246c3.618,0,7.118-0.665,10.227-2.327
			c7.274-3.93,10.989-12.456,10.989-25.303v-5.319C115.368,59.004,105.044,48.699,92.373,48.699z M109.502,77.013
			c0,10.52-2.659,17.305-7.919,20.141c-10.266,5.534-29.448-4.36-35.979-8.643l-1.584-1.056l-1.603,1.036
			c-6.551,4.204-25.811,13.903-36.097,8.291c-5.182-2.816-7.822-9.484-7.822-19.769v-5.319c0-9.444,7.685-17.129,17.129-17.129
			h56.746c9.445,0,17.129,7.685,17.129,17.129V77.013z M90.437,61.761c-6.805,0-12.299,5.495-12.299,12.299
			S83.632,86.36,90.437,86.36c6.785,0,12.299-5.495,12.299-12.299S97.222,61.761,90.437,61.761z M37.563,61.761
			c-6.785,0-12.299,5.495-12.299,12.299S30.778,86.36,37.563,86.36c6.805,0,12.3-5.495,12.3-12.299S44.368,61.761,37.563,61.761z
			 M37.563,61.761c-6.785,0-12.299,5.495-12.299,12.299S30.778,86.36,37.563,86.36c6.805,0,12.3-5.495,12.3-12.299
			S44.368,61.761,37.563,61.761z M90.437,61.761c-6.805,0-12.299,5.495-12.299,12.299S83.632,86.36,90.437,86.36
			c6.785,0,12.299-5.495,12.299-12.299S97.222,61.761,90.437,61.761z M90.437,61.761c-6.805,0-12.299,5.495-12.299,12.299
			S83.632,86.36,90.437,86.36c6.785,0,12.299-5.495,12.299-12.299S97.222,61.761,90.437,61.761z M37.563,61.761
			c-6.785,0-12.299,5.495-12.299,12.299S30.778,86.36,37.563,86.36c6.805,0,12.3-5.495,12.3-12.299S44.368,61.761,37.563,61.761z
			 M37.563,61.761c-6.785,0-12.299,5.495-12.299,12.299S30.778,86.36,37.563,86.36c6.805,0,12.3-5.495,12.3-12.299
			S44.368,61.761,37.563,61.761z M90.437,61.761c-6.805,0-12.299,5.495-12.299,12.299S83.632,86.36,90.437,86.36
			c6.785,0,12.299-5.495,12.299-12.299S97.222,61.761,90.437,61.761z M90.437,61.761c-6.805,0-12.299,5.495-12.299,12.299
			S83.632,86.36,90.437,86.36c6.785,0,12.299-5.495,12.299-12.299S97.222,61.761,90.437,61.761z M37.563,61.761
			c-6.785,0-12.299,5.495-12.299,12.299S30.778,86.36,37.563,86.36c6.805,0,12.3-5.495,12.3-12.299S44.368,61.761,37.563,61.761z
			 M92.373,48.699H35.627c-12.671,0-22.995,10.305-22.995,22.995v5.319c0,12.612,3.657,20.981,10.872,24.931
			c13.414,7.313,34.493-4.009,40.477-7.548c4.595,2.777,18.068,10.266,30.172,10.246c3.618,0,7.118-0.665,10.227-2.327
			c7.274-3.93,10.989-12.456,10.989-25.303v-5.319C115.368,59.004,105.044,48.699,92.373,48.699z M109.502,77.013
			c0,10.52-2.659,17.305-7.919,20.141c-10.266,5.534-29.448-4.36-35.979-8.643l-1.584-1.056l-1.603,1.036
			c-6.551,4.204-25.811,13.903-36.097,8.291c-5.182-2.816-7.822-9.484-7.822-19.769v-5.319c0-9.444,7.685-17.129,17.129-17.129
			h56.746c9.445,0,17.129,7.685,17.129,17.129V77.013z M90.437,61.761c-6.805,0-12.299,5.495-12.299,12.299
			S83.632,86.36,90.437,86.36c6.785,0,12.299-5.495,12.299-12.299S97.222,61.761,90.437,61.761z M37.563,61.761
			c-6.785,0-12.299,5.495-12.299,12.299S30.778,86.36,37.563,86.36c6.805,0,12.3-5.495,12.3-12.299S44.368,61.761,37.563,61.761z
			 M92.373,48.699H35.627c-12.671,0-22.995,10.305-22.995,22.995v5.319c0,12.612,3.657,20.981,10.872,24.931
			c13.414,7.313,34.493-4.009,40.477-7.548c4.595,2.777,18.068,10.266,30.172,10.246c3.618,0,7.118-0.665,10.227-2.327
			c7.274-3.93,10.989-12.456,10.989-25.303v-5.319C115.368,59.004,105.044,48.699,92.373,48.699z M109.502,77.013
			c0,10.52-2.659,17.305-7.919,20.141c-10.266,5.534-29.448-4.36-35.979-8.643l-1.584-1.056l-1.603,1.036
			c-6.551,4.204-25.811,13.903-36.097,8.291c-5.182-2.816-7.822-9.484-7.822-19.769v-5.319c0-9.444,7.685-17.129,17.129-17.129
			h56.746c9.445,0,17.129,7.685,17.129,17.129V77.013z M90.437,61.761c-6.805,0-12.299,5.495-12.299,12.299
			S83.632,86.36,90.437,86.36c6.785,0,12.299-5.495,12.299-12.299S97.222,61.761,90.437,61.761z M37.563,61.761
			c-6.785,0-12.299,5.495-12.299,12.299S30.778,86.36,37.563,86.36c6.805,0,12.3-5.495,12.3-12.299S44.368,61.761,37.563,61.761z
			 M100.605,34.777l14.431-14.411c3.011,1.349,6.648,0.802,9.132-1.682c3.207-3.207,3.207-8.408,0-11.595
			c-3.207-3.207-8.389-3.207-11.595,0c-2.464,2.464-3.031,6.101-1.682,9.112L92.451,34.64H35.549L17.11,16.2
			c1.349-3.011,0.782-6.648-1.682-9.112c-3.207-3.207-8.389-3.207-11.595,0c-3.207,3.187-3.207,8.389,0,11.595
			c2.483,2.483,6.12,3.031,9.132,1.682l14.431,14.411C12.045,36.243,0,49.207,0,64.948v28.06c0,16.699,13.59,30.309,30.309,30.309
			h67.383c16.719,0,30.309-13.61,30.309-30.309v-28.06C128,49.207,115.955,36.243,100.605,34.777z M122.134,93.008
			c0,13.473-10.97,24.442-24.442,24.442H30.309c-13.473,0-24.442-10.97-24.442-24.442v-28.06c0-13.473,10.97-24.442,24.442-24.442
			h67.383c13.473,0,24.442,10.97,24.442,24.442V93.008z M92.373,48.699H35.627c-12.671,0-22.995,10.305-22.995,22.995v5.319
			c0,12.612,3.657,20.981,10.872,24.931c13.414,7.313,34.493-4.009,40.477-7.548c4.595,2.777,18.068,10.266,30.172,10.246
			c3.618,0,7.118-0.665,10.227-2.327c7.274-3.93,10.989-12.456,10.989-25.303v-5.319C115.368,59.004,105.044,48.699,92.373,48.699z
			 M109.502,77.013c0,10.52-2.659,17.305-7.919,20.141c-10.266,5.534-29.448-4.36-35.979-8.643l-1.584-1.056l-1.603,1.036
			c-6.551,4.204-25.811,13.903-36.097,8.291c-5.182-2.816-7.822-9.484-7.822-19.769v-5.319c0-9.444,7.685-17.129,17.129-17.129
			h56.746c9.445,0,17.129,7.685,17.129,17.129V77.013z M90.437,61.761c-6.805,0-12.299,5.495-12.299,12.299
			S83.632,86.36,90.437,86.36c6.785,0,12.299-5.495,12.299-12.299S97.222,61.761,90.437,61.761z M37.563,61.761
			c-6.785,0-12.299,5.495-12.299,12.299S30.778,86.36,37.563,86.36c6.805,0,12.3-5.495,12.3-12.299S44.368,61.761,37.563,61.761z
			 M37.563,61.761c-6.785,0-12.299,5.495-12.299,12.299S30.778,86.36,37.563,86.36c6.805,0,12.3-5.495,12.3-12.299
			S44.368,61.761,37.563,61.761z M90.437,61.761c-6.805,0-12.299,5.495-12.299,12.299S83.632,86.36,90.437,86.36
			c6.785,0,12.299-5.495,12.299-12.299S97.222,61.761,90.437,61.761z M90.437,61.761c-6.805,0-12.299,5.495-12.299,12.299
			S83.632,86.36,90.437,86.36c6.785,0,12.299-5.495,12.299-12.299S97.222,61.761,90.437,61.761z M37.563,61.761
			c-6.785,0-12.299,5.495-12.299,12.299S30.778,86.36,37.563,86.36c6.805,0,12.3-5.495,12.3-12.299S44.368,61.761,37.563,61.761z
			 M92.373,48.699H35.627c-12.671,0-22.995,10.305-22.995,22.995v5.319c0,12.612,3.657,20.981,10.872,24.931
			c13.414,7.313,34.493-4.009,40.477-7.548c4.595,2.777,18.068,10.266,30.172,10.246c3.618,0,7.118-0.665,10.227-2.327
			c7.274-3.93,10.989-12.456,10.989-25.303v-5.319C115.368,59.004,105.044,48.699,92.373,48.699z M109.502,77.013
			c0,10.52-2.659,17.305-7.919,20.141c-10.266,5.534-29.448-4.36-35.979-8.643l-1.584-1.056l-1.603,1.036
			c-6.551,4.204-25.811,13.903-36.097,8.291c-5.182-2.816-7.822-9.484-7.822-19.769v-5.319c0-9.444,7.685-17.129,17.129-17.129
			h56.746c9.445,0,17.129,7.685,17.129,17.129V77.013z M90.437,61.761c-6.805,0-12.299,5.495-12.299,12.299
			S83.632,86.36,90.437,86.36c6.785,0,12.299-5.495,12.299-12.299S97.222,61.761,90.437,61.761z M37.563,61.761
			c-6.785,0-12.299,5.495-12.299,12.299S30.778,86.36,37.563,86.36c6.805,0,12.3-5.495,12.3-12.299S44.368,61.761,37.563,61.761z
			 M37.563,61.761c-6.785,0-12.299,5.495-12.299,12.299S30.778,86.36,37.563,86.36c6.805,0,12.3-5.495,12.3-12.299
			S44.368,61.761,37.563,61.761z M90.437,61.761c-6.805,0-12.299,5.495-12.299,12.299S83.632,86.36,90.437,86.36
			c6.785,0,12.299-5.495,12.299-12.299S97.222,61.761,90.437,61.761z M90.437,61.761c-6.805,0-12.299,5.495-12.299,12.299
			S83.632,86.36,90.437,86.36c6.785,0,12.299-5.495,12.299-12.299S97.222,61.761,90.437,61.761z M37.563,61.761
			c-6.785,0-12.299,5.495-12.299,12.299S30.778,86.36,37.563,86.36c6.805,0,12.3-5.495,12.3-12.299S44.368,61.761,37.563,61.761z
			 M92.373,48.699H35.627c-12.671,0-22.995,10.305-22.995,22.995v5.319c0,12.612,3.657,20.981,10.872,24.931
			c13.414,7.313,34.493-4.009,40.477-7.548c4.595,2.777,18.068,10.266,30.172,10.246c3.618,0,7.118-0.665,10.227-2.327
			c7.274-3.93,10.989-12.456,10.989-25.303v-5.319C115.368,59.004,105.044,48.699,92.373,48.699z M109.502,77.013
			c0,10.52-2.659,17.305-7.919,20.141c-10.266,5.534-29.448-4.36-35.979-8.643l-1.584-1.056l-1.603,1.036
			c-6.551,4.204-25.811,13.903-36.097,8.291c-5.182-2.816-7.822-9.484-7.822-19.769v-5.319c0-9.444,7.685-17.129,17.129-17.129
			h56.746c9.445,0,17.129,7.685,17.129,17.129V77.013z M90.437,61.761c-6.805,0-12.299,5.495-12.299,12.299
			S83.632,86.36,90.437,86.36c6.785,0,12.299-5.495,12.299-12.299S97.222,61.761,90.437,61.761z M37.563,61.761
			c-6.785,0-12.299,5.495-12.299,12.299S30.778,86.36,37.563,86.36c6.805,0,12.3-5.495,12.3-12.299S44.368,61.761,37.563,61.761z
			 M37.563,61.761c-6.785,0-12.299,5.495-12.299,12.299S30.778,86.36,37.563,86.36c6.805,0,12.3-5.495,12.3-12.299
			S44.368,61.761,37.563,61.761z M90.437,61.761c-6.805,0-12.299,5.495-12.299,12.299S83.632,86.36,90.437,86.36
			c6.785,0,12.299-5.495,12.299-12.299S97.222,61.761,90.437,61.761z M90.437,61.761c-6.805,0-12.299,5.495-12.299,12.299
			S83.632,86.36,90.437,86.36c6.785,0,12.299-5.495,12.299-12.299S97.222,61.761,90.437,61.761z M37.563,61.761
			c-6.785,0-12.299,5.495-12.299,12.299S30.778,86.36,37.563,86.36c6.805,0,12.3-5.495,12.3-12.299S44.368,61.761,37.563,61.761z
			 M37.563,61.761c-6.785,0-12.299,5.495-12.299,12.299S30.778,86.36,37.563,86.36c6.805,0,12.3-5.495,12.3-12.299
			S44.368,61.761,37.563,61.761z M90.437,61.761c-6.805,0-12.299,5.495-12.299,12.299S83.632,86.36,90.437,86.36
			c6.785,0,12.299-5.495,12.299-12.299S97.222,61.761,90.437,61.761z M90.437,61.761c-6.805,0-12.299,5.495-12.299,12.299
			S83.632,86.36,90.437,86.36c6.785,0,12.299-5.495,12.299-12.299S97.222,61.761,90.437,61.761z M37.563,61.761
			c-6.785,0-12.299,5.495-12.299,12.299S30.778,86.36,37.563,86.36c6.805,0,12.3-5.495,12.3-12.299S44.368,61.761,37.563,61.761z
			 M37.563,61.761c-6.785,0-12.299,5.495-12.299,12.299S30.778,86.36,37.563,86.36c6.805,0,12.3-5.495,12.3-12.299
			S44.368,61.761,37.563,61.761z M90.437,61.761c-6.805,0-12.299,5.495-12.299,12.299S83.632,86.36,90.437,86.36
			c6.785,0,12.299-5.495,12.299-12.299S97.222,61.761,90.437,61.761z M90.437,61.761c-6.805,0-12.299,5.495-12.299,12.299
			S83.632,86.36,90.437,86.36c6.785,0,12.299-5.495,12.299-12.299S97.222,61.761,90.437,61.761z M37.563,61.761
			c-6.785,0-12.299,5.495-12.299,12.299S30.778,86.36,37.563,86.36c6.805,0,12.3-5.495,12.3-12.299S44.368,61.761,37.563,61.761z
			 M92.373,48.699H35.627c-12.671,0-22.995,10.305-22.995,22.995v5.319c0,12.612,3.657,20.981,10.872,24.931
			c13.414,7.313,34.493-4.009,40.477-7.548c4.595,2.777,18.068,10.266,30.172,10.246c3.618,0,7.118-0.665,10.227-2.327
			c7.274-3.93,10.989-12.456,10.989-25.303v-5.319C115.368,59.004,105.044,48.699,92.373,48.699z M109.502,77.013
			c0,10.52-2.659,17.305-7.919,20.141c-10.266,5.534-29.448-4.36-35.979-8.643l-1.584-1.056l-1.603,1.036
			c-6.551,4.204-25.811,13.903-36.097,8.291c-5.182-2.816-7.822-9.484-7.822-19.769v-5.319c0-9.444,7.685-17.129,17.129-17.129
			h56.746c9.445,0,17.129,7.685,17.129,17.129V77.013z M90.437,61.761c-6.805,0-12.299,5.495-12.299,12.299
			S83.632,86.36,90.437,86.36c6.785,0,12.299-5.495,12.299-12.299S97.222,61.761,90.437,61.761z M37.563,61.761
			c-6.785,0-12.299,5.495-12.299,12.299S30.778,86.36,37.563,86.36c6.805,0,12.3-5.495,12.3-12.299S44.368,61.761,37.563,61.761z
			 M37.563,61.761c-6.785,0-12.299,5.495-12.299,12.299S30.778,86.36,37.563,86.36c6.805,0,12.3-5.495,12.3-12.299
			S44.368,61.761,37.563,61.761z M90.437,61.761c-6.805,0-12.299,5.495-12.299,12.299S83.632,86.36,90.437,86.36
			c6.785,0,12.299-5.495,12.299-12.299S97.222,61.761,90.437,61.761z M90.437,61.761c-6.805,0-12.299,5.495-12.299,12.299
			S83.632,86.36,90.437,86.36c6.785,0,12.299-5.495,12.299-12.299S97.222,61.761,90.437,61.761z M37.563,61.761
			c-6.785,0-12.299,5.495-12.299,12.299S30.778,86.36,37.563,86.36c6.805,0,12.3-5.495,12.3-12.299S44.368,61.761,37.563,61.761z
			 M37.563,61.761c-6.785,0-12.299,5.495-12.299,12.299S30.778,86.36,37.563,86.36c6.805,0,12.3-5.495,12.3-12.299
			S44.368,61.761,37.563,61.761z M90.437,61.761c-6.805,0-12.299,5.495-12.299,12.299S83.632,86.36,90.437,86.36
			c6.785,0,12.299-5.495,12.299-12.299S97.222,61.761,90.437,61.761z M90.437,61.761c-6.805,0-12.299,5.495-12.299,12.299
			S83.632,86.36,90.437,86.36c6.785,0,12.299-5.495,12.299-12.299S97.222,61.761,90.437,61.761z M37.563,61.761
			c-6.785,0-12.299,5.495-12.299,12.299S30.778,86.36,37.563,86.36c6.805,0,12.3-5.495,12.3-12.299S44.368,61.761,37.563,61.761z
			 M37.563,61.761c-6.785,0-12.299,5.495-12.299,12.299S30.778,86.36,37.563,86.36c6.805,0,12.3-5.495,12.3-12.299
			S44.368,61.761,37.563,61.761z M90.437,61.761c-6.805,0-12.299,5.495-12.299,12.299S83.632,86.36,90.437,86.36
			c6.785,0,12.299-5.495,12.299-12.299S97.222,61.761,90.437,61.761z M90.437,61.761c-6.805,0-12.299,5.495-12.299,12.299
			S83.632,86.36,90.437,86.36c6.785,0,12.299-5.495,12.299-12.299S97.222,61.761,90.437,61.761z M37.563,61.761
			c-6.785,0-12.299,5.495-12.299,12.299S30.778,86.36,37.563,86.36c6.805,0,12.3-5.495,12.3-12.299S44.368,61.761,37.563,61.761z
			 M92.373,48.699H35.627c-12.671,0-22.995,10.305-22.995,22.995v5.319c0,12.612,3.657,20.981,10.872,24.931
			c13.414,7.313,34.493-4.009,40.477-7.548c4.595,2.777,18.068,10.266,30.172,10.246c3.618,0,7.118-0.665,10.227-2.327
			c7.274-3.93,10.989-12.456,10.989-25.303v-5.319C115.368,59.004,105.044,48.699,92.373,48.699z M109.502,77.013
			c0,10.52-2.659,17.305-7.919,20.141c-10.266,5.534-29.448-4.36-35.979-8.643l-1.584-1.056l-1.603,1.036
			c-6.551,4.204-25.811,13.903-36.097,8.291c-5.182-2.816-7.822-9.484-7.822-19.769v-5.319c0-9.444,7.685-17.129,17.129-17.129
			h56.746c9.445,0,17.129,7.685,17.129,17.129V77.013z M90.437,61.761c-6.805,0-12.299,5.495-12.299,12.299
			S83.632,86.36,90.437,86.36c6.785,0,12.299-5.495,12.299-12.299S97.222,61.761,90.437,61.761z M37.563,61.761
			c-6.785,0-12.299,5.495-12.299,12.299S30.778,86.36,37.563,86.36c6.805,0,12.3-5.495,12.3-12.299S44.368,61.761,37.563,61.761z
			 M37.563,61.761c-6.785,0-12.299,5.495-12.299,12.299S30.778,86.36,37.563,86.36c6.805,0,12.3-5.495,12.3-12.299
			S44.368,61.761,37.563,61.761z M90.437,61.761c-6.805,0-12.299,5.495-12.299,12.299S83.632,86.36,90.437,86.36
			c6.785,0,12.299-5.495,12.299-12.299S97.222,61.761,90.437,61.761z M90.437,61.761c-6.805,0-12.299,5.495-12.299,12.299
			S83.632,86.36,90.437,86.36c6.785,0,12.299-5.495,12.299-12.299S97.222,61.761,90.437,61.761z M37.563,61.761
			c-6.785,0-12.299,5.495-12.299,12.299S30.778,86.36,37.563,86.36c6.805,0,12.3-5.495,12.3-12.299S44.368,61.761,37.563,61.761z
			 M37.563,61.761c-6.785,0-12.299,5.495-12.299,12.299S30.778,86.36,37.563,86.36c6.805,0,12.3-5.495,12.3-12.299
			S44.368,61.761,37.563,61.761z M90.437,61.761c-6.805,0-12.299,5.495-12.299,12.299S83.632,86.36,90.437,86.36
			c6.785,0,12.299-5.495,12.299-12.299S97.222,61.761,90.437,61.761z M90.437,61.761c-6.805,0-12.299,5.495-12.299,12.299
			S83.632,86.36,90.437,86.36c6.785,0,12.299-5.495,12.299-12.299S97.222,61.761,90.437,61.761z M37.563,61.761
			c-6.785,0-12.299,5.495-12.299,12.299S30.778,86.36,37.563,86.36c6.805,0,12.3-5.495,12.3-12.299S44.368,61.761,37.563,61.761z
			 M90.437,61.761c-6.805,0-12.299,5.495-12.299,12.299S83.632,86.36,90.437,86.36c6.785,0,12.299-5.495,12.299-12.299
			S97.222,61.761,90.437,61.761z M37.563,61.761c-6.785,0-12.299,5.495-12.299,12.299S30.778,86.36,37.563,86.36
			c6.805,0,12.3-5.495,12.3-12.299S44.368,61.761,37.563,61.761z M37.563,61.761c-6.785,0-12.299,5.495-12.299,12.299
			S30.778,86.36,37.563,86.36c6.805,0,12.3-5.495,12.3-12.299S44.368,61.761,37.563,61.761z M90.437,61.761
			c-6.805,0-12.299,5.495-12.299,12.299S83.632,86.36,90.437,86.36c6.785,0,12.299-5.495,12.299-12.299S97.222,61.761,90.437,61.761
			z M90.437,61.761c-6.805,0-12.299,5.495-12.299,12.299S83.632,86.36,90.437,86.36c6.785,0,12.299-5.495,12.299-12.299
			S97.222,61.761,90.437,61.761z M37.563,61.761c-6.785,0-12.299,5.495-12.299,12.299S30.778,86.36,37.563,86.36
			c6.805,0,12.3-5.495,12.3-12.299S44.368,61.761,37.563,61.761z M37.563,61.761c-6.785,0-12.299,5.495-12.299,12.299
			S30.778,86.36,37.563,86.36c6.805,0,12.3-5.495,12.3-12.299S44.368,61.761,37.563,61.761z M90.437,61.761
			c-6.805,0-12.299,5.495-12.299,12.299S83.632,86.36,90.437,86.36c6.785,0,12.299-5.495,12.299-12.299S97.222,61.761,90.437,61.761
			z M90.437,61.761c-6.805,0-12.299,5.495-12.299,12.299S83.632,86.36,90.437,86.36c6.785,0,12.299-5.495,12.299-12.299
			S97.222,61.761,90.437,61.761z M37.563,61.761c-6.785,0-12.299,5.495-12.299,12.299S30.778,86.36,37.563,86.36
			c6.805,0,12.3-5.495,12.3-12.299S44.368,61.761,37.563,61.761z M92.373,48.699H35.627c-12.671,0-22.995,10.305-22.995,22.995
			v5.319c0,12.612,3.657,20.981,10.872,24.931c13.414,7.313,34.493-4.009,40.477-7.548c4.595,2.777,18.068,10.266,30.172,10.246
			c3.618,0,7.118-0.665,10.227-2.327c7.274-3.93,10.989-12.456,10.989-25.303v-5.319C115.368,59.004,105.044,48.699,92.373,48.699z
			 M109.502,77.013c0,10.52-2.659,17.305-7.919,20.141c-10.266,5.534-29.448-4.36-35.979-8.643l-1.584-1.056l-1.603,1.036
			c-6.551,4.204-25.811,13.903-36.097,8.291c-5.182-2.816-7.822-9.484-7.822-19.769v-5.319c0-9.444,7.685-17.129,17.129-17.129
			h56.746c9.445,0,17.129,7.685,17.129,17.129V77.013z M90.437,61.761c-6.805,0-12.299,5.495-12.299,12.299
			S83.632,86.36,90.437,86.36c6.785,0,12.299-5.495,12.299-12.299S97.222,61.761,90.437,61.761z M37.563,61.761
			c-6.785,0-12.299,5.495-12.299,12.299S30.778,86.36,37.563,86.36c6.805,0,12.3-5.495,12.3-12.299S44.368,61.761,37.563,61.761z
			 M37.563,61.761c-6.785,0-12.299,5.495-12.299,12.299S30.778,86.36,37.563,86.36c6.805,0,12.3-5.495,12.3-12.299
			S44.368,61.761,37.563,61.761z M90.437,61.761c-6.805,0-12.299,5.495-12.299,12.299S83.632,86.36,90.437,86.36
			c6.785,0,12.299-5.495,12.299-12.299S97.222,61.761,90.437,61.761z M90.437,61.761c-6.805,0-12.299,5.495-12.299,12.299
			S83.632,86.36,90.437,86.36c6.785,0,12.299-5.495,12.299-12.299S97.222,61.761,90.437,61.761z M37.563,61.761
			c-6.785,0-12.299,5.495-12.299,12.299S30.778,86.36,37.563,86.36c6.805,0,12.3-5.495,12.3-12.299S44.368,61.761,37.563,61.761z
			 M37.563,61.761c-6.785,0-12.299,5.495-12.299,12.299S30.778,86.36,37.563,86.36c6.805,0,12.3-5.495,12.3-12.299
			S44.368,61.761,37.563,61.761z M90.437,61.761c-6.805,0-12.299,5.495-12.299,12.299S83.632,86.36,90.437,86.36
			c6.785,0,12.299-5.495,12.299-12.299S97.222,61.761,90.437,61.761z M90.437,61.761c-6.805,0-12.299,5.495-12.299,12.299
			S83.632,86.36,90.437,86.36c6.785,0,12.299-5.495,12.299-12.299S97.222,61.761,90.437,61.761z M37.563,61.761
			c-6.785,0-12.299,5.495-12.299,12.299S30.778,86.36,37.563,86.36c6.805,0,12.3-5.495,12.3-12.299S44.368,61.761,37.563,61.761z"/>
	</g>
</g>
<g id="Layer_1">
</g>
</svg>
